<svg width="200" height="200" xmlns="http://www.w3.org/2000/svg" style="vector-effect: non-scaling-stroke;">
 <g id="Layer_1">
  <title>Layer 1</title>
  <path id="svg_2" d="m69.53903,183.29637c10.87101,-10.46366 20.09699,-22.92643 23.99388,-37.07647c-11.65355,8.16659 -22.3416,21.30205 -38.59771,20.80441c-12.27235,0.64925 -26.89151,0.66024 -35.53025,-8.80075c-19.30512,-14.30934 -24.49102,-42.90907 -8.63851,-61.11969c10.8482,-13.14879 29.79155,-18.72424 47.17607,-16.75207c10.95362,-4.28406 -2.14241,-15.1317 -3.45942,-21.90176c-8.15242,-24.55759 11.05327,-54.01397 39.29371,-56.84295c20.25565,-2.68046 40.05722,9.40619 49.96861,25.09209c5.38615,10.97571 2.57977,23.43236 1.32313,34.8189c-4.23168,5.72216 -15.06952,19.56555 0.39646,18.47515c15.29141,-0.22307 31.43933,3.91492 41.52264,15.12346c14.74864,15.09565 16.10151,40.04133 1.26286,55.46631c-7.84918,9.39525 -19.62762,16.91483 -32.95866,16.49618c-13.04798,1.21416 -27.177,-1.39503 -36.4295,-10.55909c-3.9462,-2.54887 -13.61574,-12.17904 -13.6124,-10.06712c9.66495,18.55964 20.59389,37.83361 39.92819,49.33451c6.90798,5.11986 -10.52192,1.59989 -14.7414,2.64341c-25.56516,0.02083 -51.13021,0.04206 -76.69537,0.06299c5.26586,-5.0659 10.53205,-10.13158 15.79768,-15.19749l0,-0.00001z" stroke-width="2" stroke="#000000" fill="#000000"/>
 </g>
</svg>