<svg width="200" height="200" xmlns="http://www.w3.org/2000/svg" style="vector-effect: non-scaling-stroke;">
 <g id="Layer_1">
  <title>Layer 1</title>
  <path id="svg_1" d="m60.64664,191.27744c12.62132,-11.78971 21.85056,-26.71947 29.58382,-41.84697c4.72408,-6.03355 0.25155,-11.31199 -6.18293,-6.19564c-16.53651,10.68749 -39.04649,14.35254 -56.95069,4.60208c-20.24001,-10.1309 -29.36717,-34.2211 -24.7749,-55.21185c2.90823,-21.27229 18.90294,-37.9464 36.26939,-49.92385c19.94918,-13.81373 41.49182,-25.6722 59.72422,-41.66787c7.61283,0.14772 13.34216,11.71137 21.53521,14.77137c21.75477,15.68477 47.53616,27.23004 64.66741,48.20347c8.65501,11.95088 13.58786,26.66692 14.13857,41.21394c-2.637,19.72683 -14.78889,40.53129 -35.74494,46.1491c-18.11587,5.30579 -36.75434,-1.42304 -52.54106,-9.98357c-1.92829,-0.40058 -9.001,-5.79427 -6.19789,-1.60256c9.4378,18.74757 19.77846,37.36348 34.75438,52.58544c0.88024,1.92332 7.7837,6.4864 4.10967,6.4139c-30.74992,0 -61.49974,0 -92.24968,0c3.28639,-2.50231 6.5729,-5.00469 9.85941,-7.507l0,0.00001z" stroke-width="2" stroke="#ff0000" fill="#ff0000"/>
 </g>
</svg>